# xmcd
#
# Track frame offsets:
#	150
#	13398
#	28369
#	44701
#	60405
#
# Disc length: 1058 seconds
#
# Revision: 0
# Processed by: cddbd v1.5.2PL0 Copyright (c) Steve Scherf et al.
# Submitted via: audiograbber 1.83.01
#
DISCID=45042005
DTITLE=Cascada - truly madly deeply
DYEAR=2007
DGENRE=Dance
TTITLE0=truly madly deeply Radio edit
TTITLE1=truly madly deeply candy radio edit
TTITLE2=truly madly deeply thomas gold radio edit
TTITLE3=truly madly deeply 2-4 grooves radio edit
TTITLE4=truly madly deeply album version
EXTD=
EXTT0=
EXTT1=
EXTT2=
EXTT3=
EXTT4=
PLAYORDER=
